<?xml version="1.0" encoding="UTF-8" standalone="no"?>
<!-- Created with Inkscape (http://www.inkscape.org/) -->

<svg
   xmlns:dc="http://purl.org/dc/elements/1.1/"
   xmlns:cc="http://creativecommons.org/ns#"
   xmlns:rdf="http://www.w3.org/1999/02/22-rdf-syntax-ns#"
   xmlns:svg="http://www.w3.org/2000/svg"
   xmlns="http://www.w3.org/2000/svg"
   version="1.1"
   width="100%"
   height="100%"
   viewBox="0 0 221 153"
   id="Ebene_1"
   xml:space="preserve"><metadata
   id="metadata95"><rdf:RDF><cc:Work
       rdf:about=""><dc:format>image/svg+xml</dc:format><dc:type
         rdf:resource="http://purl.org/dc/dcmitype/StillImage" /><dc:title></dc:title></cc:Work></rdf:RDF></metadata><defs
   id="defs93" />
<path
   d="M 60.5,0 H 221 V 153 H 0 L 60.5,0 z"
   id="path3"
   style="fill:#62c3d9;fill-rule:evenodd" />
<g
   id="g5">
	<polygon
   points="122.8,0 145.1,18.1 155.6,0 "
   id="polygon7"
   style="fill:none" />
	<polygon
   points="132,40.5 145.1,18.1 122.8,0 110.4,0 94.8,26.9 95.9,29.4 "
   id="polygon9"
   style="fill:#3aadc0" />
	<polygon
   points="94.8,26.9 93.7,28.7 95.9,29.4 "
   id="polygon11"
   style="opacity:0.36000001;fill:#2d8592" />
	<polygon
   points="94.8,26.9 93.7,28.7 95.9,29.4 "
   id="polygon13"
   style="opacity:0.36000001;fill:#2d8592" />
	<polygon
   points="151.9,153 189.1,153 190.7,119.5 174.3,114.5 "
   id="polygon15"
   style="fill:#7ecbdd" />
	<polygon
   points="165.7,111.8 135.7,102.6 120.9,120.7 "
   id="polygon17"
   style="fill:#49bdd1" />
	<polygon
   points="55.6,94.2 96.5,106.8 84.2,128 120.9,120.7 135.7,102.6 101.9,92.2 132,40.5 95.9,29.4 110.5,61.6 69.9,69.7 "
   id="polygon19"
   style="fill:#309db0" />
	<polygon
   points="29.7,138.7 84.2,128 96.5,106.8 55.6,94.2 "
   id="polygon21"
   style="fill:#3dacbc" />
	<polygon
   points="110.5,61.6 95.9,29.4 93.7,28.7 69.9,69.7 "
   id="polygon23"
   style="opacity:0.36000001;fill:#2d8592" />
	<polygon
   points="110.5,61.6 95.9,29.4 93.7,28.7 69.9,69.7 "
   id="polygon25"
   style="opacity:0.36000001;fill:#2d8592" />
	<polygon
   points="110.5,61.6 95.9,29.4 93.7,28.7 69.9,69.7 "
   id="polygon27"
   style="fill:#3dacbc" />
	<polygon
   points="120.9,120.7 94.7,153 151.9,153 174.3,114.5 165.7,111.8 "
   id="polygon29"
   style="fill:#64c3d4" />
	<polygon
   points="69.6,153 94.7,153 120.9,120.7 84.2,128 "
   id="polygon31"
   style="fill:#46bbc9" />
	<polygon
   points="38.5,153 26.9,143.6 21.4,153 "
   id="polygon33"
   style="fill:#6ec6d6" />
	<polygon
   points="26.9,143.6 38.5,153 69.6,153 84.2,128 29.7,138.7 "
   id="polygon35"
   style="fill:#54bfcf" />
	<polygon
   points="110.4,0 82.6,0 94.8,26.9 "
   id="polygon37"
   style="fill:#51bfcf" />
	<polygon
   points="82.6,0 60.5,0 53.9,16.5 93.7,28.7 94.8,26.9 "
   id="polygon39"
   style="fill:#62c3d4" />
	<polygon
   points="29.7,77.7 26.7,85.3 55.6,94.2 69.9,69.7 "
   id="polygon41"
   style="fill:#43b7c8" />
	<polygon
   points="3.6,143.9 22.7,140.1 9.4,129.3 "
   id="polygon43"
   style="fill:#6fc7d7" />
	<polygon
   points="55.6,94.2 26.7,85.3 9.4,129.3 22.7,140.1 29.7,138.7 "
   id="polygon45"
   style="fill:#52becd" />
	<polygon
   points="53.9,16.5 29.7,77.7 69.9,69.7 93.7,28.7 "
   id="polygon47"
   style="fill:#52becd" />
	<polygon
   points="3.6,143.9 0,153 21.4,153 26.9,143.6 22.7,140.1 "
   id="polygon49"
   style="fill:#7fcbda" />
	<polygon
   points="29.7,138.7 22.7,140.1 26.9,143.6 "
   id="polygon51"
   style="opacity:0.36000001;fill:#2d8592" />
	<polygon
   points="29.7,138.7 22.7,140.1 26.9,143.6 "
   id="polygon53"
   style="opacity:0.36000001;fill:#2d8592" />
	<polygon
   points="29.7,138.7 22.7,140.1 26.9,143.6 "
   id="polygon55"
   style="opacity:0.75;fill:#2d8592" />
	<polygon
   points="29.7,138.7 22.7,140.1 26.9,143.6 "
   id="polygon57"
   style="opacity:0.18999999;fill:#2d8592" />
	<polygon
   points="29.7,138.7 22.7,140.1 26.9,143.6 "
   id="polygon59"
   style="fill:#6ec6d6" />
	<polygon
   points="175.3,53.8 193.6,59.5 196.5,0 155.6,0 145.1,18.1 180.8,47.1 "
   id="polygon61"
   style="fill:#72c8db" />
	<polygon
   points="192.5,83.3 177.1,109.6 191.3,106.8 "
   id="polygon63"
   style="fill:#7ecbdd" />
	<polygon
   points="145.1,18.1 132,40.5 175.3,53.8 180.8,47.1 "
   id="polygon65"
   style="fill:#49bdcd" />
	<polygon
   points="190.7,119.5 191.3,106.8 177.1,109.6 174.3,114.5 "
   id="polygon67"
   style="fill:#62c3d9" />
	<polygon
   points="177.1,109.6 192.5,83.3 193.6,59.5 175.3,53.8 135.7,102.6 165.7,111.8 "
   id="polygon69"
   style="opacity:0.18999999;fill:#2d8592" />
	<polygon
   points="177.1,109.6 192.5,83.3 193.6,59.5 175.3,53.8 135.7,102.6 165.7,111.8 "
   id="polygon71"
   style="fill:#5bc1d4" />
	<polygon
   points="175.3,53.8 132,40.5 101.9,92.2 135.7,102.6 "
   id="polygon73"
   style="fill:#3eafc1" />
	<polygon
   points="174.3,114.5 177.1,109.6 165.7,111.8 "
   id="polygon75"
   style="fill:#46bbc9" />
	<polygon
   points="221,153 221,128.9 190.7,119.5 189.1,153 "
   id="polygon77"
   style="fill:#6cc6d7" />
	<polygon
   points="192.5,83.3 191.3,106.8 221,100.9 221,0 196.5,0 193.6,59.5 204.4,62.8 "
   id="polygon79"
   style="fill:#5dc2d4" />
	<polygon
   points="221,128.9 221,100.9 191.3,106.8 190.7,119.5 "
   id="polygon81"
   style="fill:#74c8d8" />
	<polygon
   points="193.6,59.5 192.5,83.3 204.4,62.8 "
   id="polygon83"
   style="opacity:0.18999999;fill:#2d8592" />
	<polygon
   points="193.6,59.5 192.5,83.3 204.4,62.8 "
   id="polygon85"
   style="opacity:0.36000001;fill:#2d8592" />
	<polygon
   points="193.6,59.5 192.5,83.3 204.4,62.8 "
   id="polygon87"
   style="fill:#49bccd" />
</g>
<path
   d="m 131.9,84 v 14.7 h -14.7 v -9.8 -9.8 -9.8 l 24.5,-9.8 V 44.8 h -44 V 30.1 h 44.1 4.9 9.8 V 74.2 L 131.9,84 z m 0,39.1 h -14.7 v -14.7 h 14.7 v 14.7 z"
   id="path89"
   style="opacity:0.5;fill:#7ecbdd;fill-rule:evenodd" />
</svg>