<?xml version="1.0" encoding="UTF-8" standalone="no"?>
<!-- Created with Inkscape (http://www.inkscape.org/) -->

<svg
   xmlns:dc="http://purl.org/dc/elements/1.1/"
   xmlns:cc="http://creativecommons.org/ns#"
   xmlns:rdf="http://www.w3.org/1999/02/22-rdf-syntax-ns#"
   xmlns:svg="http://www.w3.org/2000/svg"
   xmlns="http://www.w3.org/2000/svg"
   version="1.1"
   width="100%"
   height="100%"
   viewBox="1.7 0 21.4 22"
   id="Ebene_1"
   xml:space="preserve"><metadata
   id="metadata17"><rdf:RDF><cc:Work
       rdf:about=""><dc:format>image/svg+xml</dc:format><dc:type
         rdf:resource="http://purl.org/dc/dcmitype/StillImage" /><dc:title></dc:title></cc:Work></rdf:RDF></metadata><defs
   id="defs15" />
<path
   d="m 22.6,14.5 0,0 c 0.2,-0.5 0.3,-1.1 0.4,-1.6 0.2,-1.6 0.1,-3.2 -0.3,-4.8 0,0 0,-0.1 0,-0.1 0,0 0,0 0,-0.1 l 0,0 C 22.3,6.7 21.7,5.5 20.9,4.4 L 12,11.2 20.9,18 c 0.7,-1.1 1.3,-2.3 1.7,-3.5 z"
   id="path3"
   style="fill:#ffffff" />
<path
   d="m 2.2,17 c 0,0 0,0 0,0 0.1,0.1 0.1,0.1 0.1,0.1 0,0 0,0 0,0 0,0.1 0.1,0.1 0.1,0.2 0,0 0,0 0,0 0,0 0.1,0.1 0.1,0.1 0,0.1 0.1,0.1 0.1,0.2 0.1,0.1 0.1,0.2 0.2,0.2 0.1,0.2 0.1,0.2 0.2,0.3 0.1,0.1 0.1,0.2 0.2,0.2 0,0.1 0.1,0.1 0.1,0.2 0.1,0.1 0.2,0.2 0.2,0.3 0,0 0.1,0.1 0.1,0.1 0.2,0.1 0.3,0.2 0.4,0.3 0,0 0.1,0.1 0.1,0.1 0.1,0.1 0.3,0.3 0.4,0.4 0.1,0.1 0.1,0.1 0.2,0.2 0,0 0.1,0.1 0.1,0.1 0,0 0,0 0,0 0,0 0,0 0.1,0 0,0 0,0 0,0 0.1,0 0.1,0.1 0.2,0.1 0,0 0,0 0,0 0,0 0.1,0 0.1,0.1 0,0 0,0 0.1,0 l 0,0 c 1.1,0.8 2.3,1.4 3.6,1.7 l 3,-10.8 -9.7,5.9 c 0,-0.1 0,-0.1 0,0 z"
   id="path5"
   style="fill:#ffffff" />
<path
   d="M 1.7,6.3 11.8,11.1 10.6,0 C 10.5,0 10.5,0 10.4,0 10.3,0 10.3,0 10.2,0 10.1,0 10,0 9.9,0.1 c 0,0 0,0 0,0 l 0,0 c 0,0 -0.1,0 -0.1,0 0,0 -0.1,0 -0.1,0 -0.1,0 -0.3,0.1 -0.4,0.1 0,0 -0.1,0 -0.1,0 0,0 0,0 0,0 C 9,0.3 8.8,0.3 8.7,0.4 c 0,0 0,0 0,0 0,0 -0.1,0 -0.1,0 C 8,0.6 7.4,0.8 6.8,1.1 c 0,0 0,0 0,0 0,0 0,0 -0.1,0 0,0 0,0 0,0 0,0 -0.1,0 -0.1,0.1 l 0,0 c 0,0 -0.1,0 -0.1,0 C 6.4,1.2 6.3,1.3 6.2,1.3 6.1,1.5 6,1.6 5.9,1.6 5.8,1.6 5.8,1.7 5.7,1.7 5.6,1.8 5.5,1.9 5.4,1.9 5.4,2 5.3,2 5.3,2 5.1,2.1 5,2.2 4.9,2.3 c 0,0 0,0 0,0 -0.2,0.2 -0.3,0.3 -0.4,0.4 0,0 0,0 -0.1,0.1 C 4.3,2.9 4.1,3 4,3.1 l 0,0 C 3.8,3.3 3.7,3.4 3.6,3.5 c 0,0 0,0 0,0 0,0 -0.1,0.1 -0.1,0.1 l 0,0 C 2.8,4.5 2.2,5.4 1.7,6.3 z"
   id="path7"
   style="fill:#ffffff" />
<circle
   cx="11.8"
   cy="11.2"
   r="9.1999998"
   id="circle9"
   style="fill:#16404d" />
<polygon
   points="16.3,11.2 9.4,15.2 9.4,7.2 "
   id="polygon11"
   style="fill:#ffcb03" />
</svg>