<?xml version="1.0" encoding="utf-8"?>
<!-- Generator: Adobe Illustrator 18.0.0, SVG Export Plug-In . SVG Version: 6.00 Build 0)  -->
<!DOCTYPE svg PUBLIC "-//W3C//DTD SVG 1.1//EN" "http://www.w3.org/Graphics/SVG/1.1/DTD/svg11.dtd">
<svg version="1.1" id="Ebene_1" xmlns="http://www.w3.org/2000/svg" xmlns:xlink="http://www.w3.org/1999/xlink" x="0px" y="0px"
	 viewBox="260.6 383.9 21.4 22.1" enable-background="new 260.6 383.9 21.4 22.1" xml:space="preserve">
<path opacity="0.55" fill="#535353" d="M282,397.8v-4.1l-2.3-0.3c-0.1-0.4-0.3-0.9-0.5-1.3l1.4-1.9l-2.9-2.9l-1.9,1.4
	c-0.4-0.2-0.8-0.3-1.3-0.4l-0.3-2.3h-4.1l-0.3,2.3c-0.5,0.1-0.9,0.2-1.3,0.4l-1.9-1.4l-2.9,2.9l1.4,1.9c-0.2,0.4-0.5,0.9-0.7,1.3
	l-2.4,0.4v4.1l2.5,0.3c0.1,0.4,0.4,0.9,0.6,1.3l-1.4,1.9l2.9,2.9l1.9-1.4c0.4,0.2,0.8,0.5,1.3,0.7l0.4,2.4h4.1l0.3-2.5
	c0.4-0.1,0.9-0.4,1.3-0.6l1.9,1.4l2.9-2.9l-1.4-1.9c0.2-0.4,0.3-0.8,0.4-1.3L282,397.8z M272.5,400.9c-3.1,0.2-5.6-2.4-5.4-5.4
	c0.1-2.6,2.2-4.7,4.9-4.9c3-0.1,5.5,2.4,5.4,5.4C277.2,398.7,275.1,400.8,272.5,400.9z"/>
<path fill="#FFFFFF" d="M280.6,395.7v-4.1l-2.3-0.3c-0.1-0.4-0.3-0.9-0.5-1.3l1.4-1.9l-2.9-2.9l-1.9,1.4c-0.4-0.2-0.8-0.3-1.3-0.4
	l-0.3-2.3h-4.1l-0.3,2.3c-0.5,0.1-0.9,0.2-1.3,0.4l-1.9-1.4l-2.9,2.9l1.4,1.9c-0.2,0.4-0.5,0.9-0.7,1.3l-2.4,0.4v4.1l2.5,0.3
	c0.1,0.4,0.4,0.9,0.6,1.3l-1.4,1.9l2.9,2.9l1.9-1.4c0.4,0.2,0.8,0.5,1.3,0.7l0.4,2.4h4.1l0.3-2.5c0.4-0.1,0.9-0.4,1.3-0.6l1.9,1.4
	l2.9-2.9l-1.4-1.9c0.2-0.4,0.3-0.8,0.4-1.3L280.6,395.7z M271.1,398.8c-3.1,0.2-5.6-2.4-5.4-5.4c0.1-2.6,2.2-4.7,4.9-4.9
	c3-0.1,5.5,2.4,5.4,5.4C275.8,396.6,273.7,398.7,271.1,398.8z"/>
</svg>
