<?xml version="1.0" encoding="utf-8"?>
<!-- Generator: Adobe Illustrator 18.0.0, SVG Export Plug-In . SVG Version: 6.00 Build 0)  -->
<!DOCTYPE svg PUBLIC "-//W3C//DTD SVG 1.1//EN" "http://www.w3.org/Graphics/SVG/1.1/DTD/svg11.dtd">
<svg version="1.1" id="Ebene_1" xmlns="http://www.w3.org/2000/svg" xmlns:xlink="http://www.w3.org/1999/xlink" x="0px" y="0px"
	 viewBox="0 0 27 22" enable-background="new 0 0 27 22" xml:space="preserve">
<g opacity="0.55">
	<circle fill="#535353" cx="19.5" cy="9.5" r="2.5"/>
	<path fill="#535353" d="M1,2v20h26V2H1z M24,19h-4c0,0-6.4-6.6-9-9c-1.1-1-2,0-2,0l-5,5V5h20V19z"/>
</g>
<g>
	<circle fill="#FFFFFF" cx="18.5" cy="7.5" r="2.5"/>
	<path fill="#FFFFFF" d="M0,0v20h26V0H0z M23,17h-4c0,0-6.4-6.6-9-9C8.9,7,8,8,8,8l-5,5V3h20V17z"/>
</g>
</svg>
