<?xml version="1.0" encoding="utf-8"?>
<!-- Generator: Adobe Illustrator 18.0.0, SVG Export Plug-In . SVG Version: 6.00 Build 0)  -->
<!DOCTYPE svg PUBLIC "-//W3C//DTD SVG 1.1//EN" "http://www.w3.org/Graphics/SVG/1.1/DTD/svg11.dtd">
<svg version="1.1" id="Ebene_1" xmlns="http://www.w3.org/2000/svg" xmlns:xlink="http://www.w3.org/1999/xlink" x="0px" y="0px"
	 viewBox="0 0 24 24" enable-background="new 0 0 24 24" xml:space="preserve">
<path fill-rule="evenodd" clip-rule="evenodd" fill="#FFFFFF" d="M12,24C5.4,24,0,18.6,0,12S5.4,0,12,0c6.6,0,12,5.4,12,12
	S18.6,24,12,24z M10.6,12.5c1.4-1.7,6.1,0.2,6.1,0.2L21,7.5L16.5,3c0,0-0.7,2.8-2.5,3s-1.5-3.1-1.5-3.1S9.6,3,9,3
	C8.4,3,3.9,5.1,3,7.5c-0.9,2.4,1.8,3.1,1.8,3.1s3.2,3.9,4.8,4.8C11.2,16.3,12,18,12,18v4.5c0,0,3-0.8,4.7-1.8c1.6-1,2.8-2.7,2.8-2.7
	l-6.1-1.7C13.4,16.3,9.8,13.4,10.6,12.5z"/>
</svg>
